<svg width="90" height="190" viewBox="0 0 90 190" fill="none" xmlns="http://www.w3.org/2000/svg">
<path fill-rule="evenodd" clip-rule="evenodd" d="M15.9487 162.154C15.4475 162.027 15.0716 161.838 14.821 161.585C14.6958 161.964 14.5704 162.343 14.4451 162.722C13.5054 164.616 11.25 165.374 9.74646 164.616C8.05494 163.858 7.4911 161.775 8.61878 159.88C8.61878 159.628 8.68143 159.438 8.80672 159.312C8.68143 159.312 8.55613 159.312 8.43084 159.312C8.24289 159.502 7.86699 159.691 7.67904 159.88C7.67904 160.007 7.6164 160.133 7.4911 160.259C7.86699 161.775 6.92725 163.669 5.04778 164.237C2.98036 164.995 0.912939 164.427 0.161149 162.722C-0.402693 161.017 0.53705 159.123 2.60447 158.365C4.296 157.797 5.98751 158.175 6.92725 159.123C7.05255 159.249 7.2405 159.312 7.4911 159.312C7.6164 159.312 7.74169 159.249 7.86699 159.123C7.36579 158.87 6.92726 158.491 6.55136 157.986C5.79957 156.849 5.98751 155.145 7.1152 154.008C6.55135 153.629 5.98752 153.061 5.61163 152.303C5.04778 150.598 6.36342 148.704 8.24289 148.136C9.74647 147.567 11.25 147.946 12.1898 148.893C12.3151 148.641 12.503 148.325 12.7536 147.946C12.7536 147.946 12.8163 147.946 12.9416 147.946C12.4404 147.567 12.1271 147.125 12.0018 146.62C11.438 145.105 12.5657 143.589 14.2572 143.21C15.1969 142.832 15.9487 143.021 16.5126 143.21C16.7005 142.263 17.2644 141.505 18.2041 140.937C16.8885 140.179 16.1367 138.664 16.7005 137.338C17.2644 135.823 19.1438 135.254 20.8354 135.823C20.9607 135.823 21.0233 135.823 21.0233 135.823C21.963 137.527 22.9028 139.043 23.8425 140.558C24.0931 141.063 24.469 141.442 24.9702 141.695C26.0979 142.958 27.3509 144.158 28.7291 145.294C28.9797 145.547 29.2303 145.736 29.4809 145.862C29.8568 146.368 30.358 146.873 30.9845 147.378C30.0448 145.294 29.4809 142.263 29.105 140.369C27.9774 135.254 30.9845 129.382 35.6832 127.488C38.8783 126.162 43.9529 128.435 45.0806 131.655C45.4565 132.792 45.4565 133.928 44.5167 134.686C43.7649 135.444 43.2011 134.307 42.6372 133.928C39.818 132.223 38.1265 132.792 37.3747 136.201C36.8109 138.096 37.3747 139.801 38.5024 141.505C40.1939 143.4 42.2614 145.105 44.7047 145.673C45.2685 145.673 45.8324 145.862 46.3962 146.431C46.8974 146.683 47.3359 147.062 47.7118 147.567C48.4636 148.704 49.0275 149.84 50.1551 150.409C50.4057 150.914 50.4684 151.482 50.3431 152.114C49.7792 153.25 48.8395 153.819 47.5239 153.819C47.5239 154.766 46.96 155.713 46.2083 156.281C45.0806 157.418 43.389 157.418 42.0734 156.281C41.1337 157.039 40.1939 157.228 39.0662 156.849C38.5651 156.597 38.1892 156.281 37.9386 155.902C37.7506 157.797 36.435 158.933 34.7435 158.933C33.4278 158.744 32.4881 157.607 32.1122 156.281C31.5484 156.66 30.7966 156.849 30.0448 156.66C29.4183 156.534 28.9797 156.218 28.7291 155.713C28.7291 156.092 28.6665 156.534 28.5412 157.039C27.7894 158.744 26.0979 159.88 24.5943 159.312C23.2787 158.933 22.5269 157.607 22.7148 156.281C21.963 156.849 21.0233 157.228 20.2715 157.228C20.5221 157.986 20.5221 158.744 20.2715 159.501C19.5197 161.585 17.6403 162.722 15.9487 162.154ZM33.2399 142.074C34.3676 145.294 37.5627 149.84 40.006 151.735C40.6325 151.987 41.259 152.177 41.8855 152.303C42.5119 152.556 43.0758 152.556 43.577 152.303C42.9505 151.672 42.2614 150.977 41.5096 150.219C40.9457 149.84 40.3819 149.462 39.818 149.083C39.1915 148.704 38.6277 148.262 38.1265 147.757C37.1241 146.999 36.1844 146.178 35.3073 145.294C34.9314 144.789 34.5555 144.284 34.1796 143.779C33.9917 143.21 33.4278 142.642 33.2399 142.074Z" fill="#833B56"/>
<path d="M2.04053 113.659C2.04053 113.659 5.79947 111.196 9.93431 112.144L9.74637 110.628C9.74637 110.628 11.6258 110.249 14.2571 111.575V109.87C14.2571 109.87 16.3245 110.06 17.8281 111.196C16.5125 115.174 16.5125 119.721 17.0763 123.509C17.2016 124.015 17.2643 124.52 17.2643 125.025C16.3245 125.025 15.5727 125.783 12.7535 125.783C9.93431 125.593 8.24279 123.888 7.67895 123.32L8.80663 122.752C8.80663 122.752 6.36332 121.615 4.85974 119.531L6.55127 118.584C6.55127 118.584 3.73205 116.5 2.04053 113.659Z" fill="#833B56"/>
<path d="M15.7607 138.854C14.2572 139.043 12.3777 138.664 10.3103 137.149C10.3103 137.149 11.062 136.201 11.4379 135.633C11.4379 135.633 6.9272 132.981 5.04773 129.382C5.04773 129.382 7.67899 129.571 10.6862 129.003L9.93436 127.109C9.93436 127.109 12.0018 128.435 15.3848 127.677C16.5125 127.488 17.2643 127.109 17.6402 126.73C18.2667 129.382 19.1438 131.971 20.2715 134.497C20.3968 134.623 20.5221 134.812 20.6474 135.065C19.8956 134.875 19.1438 134.875 18.204 135.065C16.8884 135.444 15.3848 136.58 15.7607 138.854Z" fill="#833B56"/>
<path d="M83.9857 72.7418C84.9254 73.1206 85.6772 73.6889 86.8049 74.2572C85.1134 75.7727 83.2339 76.341 81.3544 76.7198C79.475 77.2881 78.9111 78.4247 78.9111 80.1296C78.7232 84.2971 80.2267 87.5175 83.6098 89.7906C84.3616 90.2958 85.1134 90.8009 85.8652 91.3061C82.4821 93.3898 76.2799 92.2532 72.333 89.0329C70.2655 87.5175 68.574 85.4337 67.2584 83.35C66.1307 81.8345 65.1909 81.6451 63.4994 81.8345C59.1766 82.7817 56.3574 82.2134 53.3503 80.1296C55.0418 78.993 56.5454 78.2353 57.861 77.2881C61.8079 74.6361 63.8753 70.8475 63.6874 65.9222C63.4994 61.7547 62.3717 57.7767 60.3043 54.1775C59.3646 52.2832 58.2369 50.9571 56.5454 49.6311C53.5382 47.7368 52.7864 47.9262 51.4708 51.1466C50.907 52.4726 50.3431 53.7986 49.4034 54.9352C46.9601 57.9661 44.8926 58.5344 41.1337 57.2084C42.2614 56.2612 43.9529 55.6929 43.7649 53.988C43.577 52.0937 42.8252 50.3888 40.9457 49.0628C37.5627 46.4108 33.8038 46.0319 29.8569 46.4108C23.0908 47.3579 18.0162 52.8514 17.8282 59.671C17.8282 61.7547 17.8282 63.8385 16.5126 65.9222C15.3849 68.006 16.7005 70.8475 19.1438 72.1735C21.5872 73.6889 24.7823 73.3101 26.2859 71.6052C26.8497 70.8475 27.0376 70.0897 26.2859 69.5214C25.5341 68.9531 24.9702 68.9531 24.4064 69.9003C23.2787 71.6052 21.9631 71.0369 20.8354 69.9003C19.7077 68.7637 18.9559 67.4377 20.6474 65.9222C22.339 64.2174 25.722 64.5962 27.9774 66.4905C30.0448 68.1954 29.481 70.0897 28.3533 71.9841C26.6617 75.2044 23.6546 76.5304 20.0836 75.7727C12.9416 74.2572 10.1224 70.8475 10.4983 64.2174C10.8742 55.8824 14.6331 49.8205 20.4595 45.2742C20.0836 44.8953 19.8956 44.5165 19.8956 44.5165L20.8354 43.9482C19.1439 42.8116 18.58 41.4855 18.58 41.4855L19.7077 41.1067C17.8282 39.0229 17.8282 35.992 17.8282 35.992C20.2715 35.992 22.5269 36.9392 22.5269 36.9392L22.7149 35.6132C24.4064 35.8026 25.91 36.7498 25.91 36.7498V35.992C26.4738 35.992 28.1653 36.5603 29.293 38.0758C29.6689 38.8335 29.8569 39.4018 30.0448 39.7807C30.4207 39.5281 30.8592 39.3386 31.3604 39.2124C31.3604 39.0861 31.3604 39.0229 31.3604 39.0229C30.6086 36.7497 28.9171 35.992 28.9171 35.992L30.6086 35.6132C29.8568 33.7189 28.9171 32.2034 28.9171 32.2034C31.1725 32.2034 33.6158 33.1506 34.5555 33.7189C34.1796 32.9611 33.9917 32.5822 33.9917 32.5822H35.4953C35.6206 32.5822 35.6832 32.5822 35.6832 32.5822C34.9314 32.014 34.9314 30.6879 34.9314 30.6879H36.623C35.8712 30.4985 35.8712 29.3619 35.8712 29.3619C38.1265 29.5513 41.1337 28.6042 40.9457 27.657C40.5698 26.7099 39.8181 27.0887 39.0663 27.2782C38.5024 27.657 35.6832 28.6042 32.4881 26.7099C29.1051 24.6261 28.5412 21.5952 28.5412 21.5952C29.293 21.4058 30.6086 21.5952 30.6086 21.5952C28.1653 17.4277 29.1051 14.0179 29.1051 14.0179C29.8569 14.0179 31.5484 14.7757 31.5484 14.7757C30.9845 12.5025 31.5484 11.3659 31.5484 11.3659C34.1796 11.3659 36.435 13.4496 37.3748 14.5862C38.5024 15.9123 39.2542 16.8594 39.8181 17.2383C40.3819 17.6171 41.8855 16.67 39.8181 14.9651C37.7506 13.0708 37.5627 9.85044 37.5627 9.85044C39.0663 9.47158 40.006 9.66101 40.006 9.66101C39.4422 6.81954 40.3819 5.11465 40.3819 5.11465L41.1337 5.49352C42.2614 1.70489 45.6444 0 45.6444 0C48.8395 1.13659 50.5311 5.49352 50.5311 5.49352L51.8467 4.73579C52.4105 6.06181 52.2226 9.09273 52.2226 9.09273C53.1623 8.52443 54.29 8.71386 54.29 8.71386C54.6659 9.66101 53.9141 11.9342 52.7864 13.4496C51.6587 14.9651 51.2828 16.8594 51.2828 17.4277C51.4708 17.8066 52.9744 18.5643 54.29 14.9651C55.7936 11.3659 56.7333 11.1765 56.7333 11.1765C57.6731 11.9342 58.049 13.0708 58.049 13.0708C59.7405 12.1236 61.6199 9.28216 61.6199 9.28216C64.6271 12.3131 64.6271 16.4806 64.6271 16.4806C65.7548 16.1017 66.3186 15.9123 66.3186 15.9123C67.2584 19.7009 66.1307 22.3529 63.8753 23.8684C61.62 25.3838 57.4851 25.3838 56.7333 25.5733C55.7936 25.5733 54.29 26.331 56.1695 27.2782C58.049 28.2253 61.432 26.5204 61.432 26.5204C62.1838 28.2253 61.8079 29.1725 61.8079 29.1725L63.6874 28.7936L62.1838 29.5513C58.8007 25.9521 56.5454 28.7936 56.1695 29.3619C55.6056 29.7408 55.0418 31.4457 55.0418 31.4457C54.1021 31.0668 52.9744 31.6351 52.9744 31.6351C50.907 28.983 48.6516 30.1196 47.5239 31.0668C46.5842 32.014 46.0203 33.1506 46.0203 33.1506C44.5167 32.2034 42.6373 33.9083 42.6373 33.9083C40.3819 32.7717 39.0663 34.0977 38.3145 35.0449C38.1892 35.1712 38.0639 35.2974 37.9386 35.4237C37.8133 35.55 37.7506 35.6763 37.7506 35.8026C37.6253 35.9289 37.5627 36.0552 37.5627 36.1815C37.4374 36.1815 37.3748 36.2446 37.3748 36.3709C37.3748 36.3709 37.3748 36.434 37.3748 36.5603C37.3748 36.6866 37.3121 36.7498 37.1868 36.7498C37.1868 36.876 37.1868 37.0023 37.1868 37.1286C37.1868 37.1286 37.1868 37.1918 37.1868 37.318C37.0615 37.4443 36.9988 37.5706 36.9988 37.6969C37.3747 37.5706 37.688 37.5075 37.9386 37.5075C38.0639 36.7498 38.3145 36.1183 38.6904 35.6132C39.8181 34.2871 41.5096 34.0977 42.8252 34.8554C43.577 34.0977 44.5167 33.7188 45.6444 33.9083C46.1456 33.9083 46.5842 34.0977 46.9601 34.4766C46.9601 32.7717 47.8998 31.2562 49.5913 31.0668C50.719 30.8774 52.0346 31.8245 52.5985 32.9611C53.1623 32.5823 53.9141 32.2034 54.478 32.3928C55.1044 32.3928 55.6683 32.5823 56.1695 32.9611C56.0442 32.5823 56.0442 32.1402 56.1695 31.6351C56.3574 29.7408 57.861 28.4148 59.3646 28.6042C60.6802 28.7936 61.8079 29.9302 61.9959 31.2562C62.5597 30.4985 63.3115 30.1196 64.0633 29.9302C63.6874 29.1725 63.5621 28.4148 63.6874 27.657C64.0633 25.5733 65.7548 24.0578 67.4463 24.2473C67.9475 24.2473 68.3234 24.3735 68.574 24.6261C68.574 24.2473 68.6367 23.8053 68.762 23.3001C69.5137 21.4058 71.3932 20.0798 73.0848 20.6481C74.7763 21.0269 75.716 23.1107 75.1522 25.005C75.0269 25.2576 74.9642 25.447 74.9642 25.5733C75.0895 25.5733 75.2148 25.5733 75.3401 25.5733C75.5281 25.3838 75.716 25.1944 75.904 25.005C75.904 24.8787 75.9666 24.6893 76.0919 24.4367C75.3401 22.9212 76.0919 21.0269 77.7834 20.0798C79.475 18.9432 81.7303 19.1326 82.6701 20.6481C83.7977 22.1635 83.046 24.2473 81.1665 25.3839C79.6629 26.331 77.9714 26.331 76.8437 25.3839C76.7184 25.3839 76.5304 25.3839 76.2799 25.3839C76.1546 25.5101 76.0293 25.6364 75.904 25.7627C76.5305 25.889 77.0316 26.1416 77.4075 26.5204C78.5352 27.657 78.5352 29.1725 77.5955 30.6879C78.3473 30.8774 78.9111 31.2562 79.287 32.014C80.2267 33.5294 79.475 35.6132 77.5955 36.5603C76.0919 37.3181 74.5883 37.3181 73.4606 36.5603C73.4606 36.9392 73.398 37.2549 73.2727 37.5075C73.1474 37.5075 73.0848 37.5706 73.0848 37.6969C73.5859 37.9495 73.9618 38.3284 74.2124 38.8335C74.9642 40.1595 74.2124 41.8644 72.5209 42.6221C71.7691 43.001 71.0173 43.001 70.2655 43.001C70.4535 43.7587 69.8896 44.8953 69.1378 45.4636C70.6414 46.0319 71.5812 47.3579 71.3932 48.6839C71.2679 49.3154 70.892 49.8205 70.2655 50.1994C70.5161 50.452 70.7041 50.7046 70.8294 50.9571C71.7691 50.1994 72.5209 48.8734 71.7691 47.1685C73.2727 46.7896 75.3401 46.7896 77.5955 47.5474C77.5955 47.5474 77.0316 48.8734 76.8437 49.4417C76.8437 49.4417 81.5424 51.1466 84.1736 54.3669C84.1736 54.3669 81.5424 54.7458 78.7232 55.6929L79.8509 57.5872C79.8509 57.5872 77.9714 56.8295 75.3401 57.5872C75.716 58.2187 76.0919 58.8501 76.4678 59.4816C76.7184 59.4816 76.969 59.4816 77.2196 59.4816C80.0388 58.9133 82.1062 60.4287 82.858 60.8076L81.7303 61.5653C81.7303 61.5653 84.3616 62.323 86.2411 64.0279L84.7375 65.3539C84.7375 65.3539 87.9326 66.8694 90 69.332C90 69.332 86.9928 71.984 83.2339 72.1735C83.4845 72.2998 83.7351 72.4892 83.9857 72.7418Z" fill="#833B56"/>
<path d="M82.4822 117.069C88.1206 125.404 87.5568 136.012 81.3545 143.4C76.6558 148.704 71.0174 150.03 64.4392 148.893C65.7549 149.651 66.5067 151.166 66.5067 151.166L65.379 151.545C66.8825 153.061 67.0705 154.387 67.0705 154.387L65.9428 154.576C67.4464 157.039 66.6946 159.88 66.6946 159.88C64.4392 159.501 62.3718 158.175 62.3718 158.175L61.9959 159.501C60.3044 158.933 58.9888 157.607 58.9888 157.607L58.8008 158.554C58.4249 158.365 56.7334 157.607 55.9816 155.713C55.4178 154.008 55.6057 153.25 55.4178 152.682C55.2298 151.924 53.9142 152.114 54.1021 154.387C54.478 156.849 55.7937 157.986 55.7937 157.986L54.2901 157.797C54.666 159.88 55.2298 161.585 55.2298 161.585C52.9744 161.206 50.7191 159.691 49.9673 159.123C50.1552 159.88 50.3432 160.259 50.3432 160.259L48.8396 159.88C48.8396 160.007 48.8396 160.07 48.8396 160.07C48.8396 159.943 48.777 159.88 48.6517 159.88C49.4034 160.638 49.0275 161.964 49.0275 161.964L47.524 161.585C48.0878 161.964 47.8999 163.101 47.8999 163.101C45.6445 162.343 42.4494 162.722 42.6373 163.858C42.6373 164.806 43.5771 164.616 44.3289 164.427C45.0807 164.237 48.0878 163.858 50.7191 166.51C53.5383 168.973 53.7262 172.193 53.7262 172.193C52.7865 172.193 51.4709 171.815 51.4709 171.815C53.1624 176.361 51.6588 179.392 51.6588 179.392C50.907 179.392 49.4034 178.255 49.4034 178.255C49.4034 180.528 48.6517 181.665 48.6517 181.665C46.2083 181.097 44.3289 178.634 43.5771 177.308C42.8253 175.793 42.2614 174.656 41.8855 174.277C41.3217 173.709 39.6302 174.467 41.3217 176.55C43.0132 178.634 42.6373 181.854 42.6373 181.854C41.1338 182.044 40.194 181.665 40.194 181.665C40.194 184.506 38.8784 186.211 38.8784 186.211L38.1266 185.454C36.4351 189.053 32.8641 190 32.8641 190C29.8569 188.295 28.9172 183.749 28.9172 183.749L27.6015 184.128C27.4136 182.802 27.9775 179.96 27.9775 179.96C27.0377 180.339 25.91 179.96 25.91 179.96C25.7221 178.824 26.8498 176.74 28.3533 175.414C29.669 174.277 30.4208 172.572 30.4208 172.004C30.4208 171.436 29.1051 170.489 27.0377 173.709C24.9703 177.119 24.0305 176.929 24.0305 176.929C23.2788 176.171 23.0908 175.035 23.0908 175.035C21.2113 175.414 18.956 177.876 18.956 177.876C16.3247 174.467 17.2644 170.299 17.2644 170.299C15.9488 170.299 15.385 170.489 15.385 170.489C15.197 166.7 16.8885 164.237 19.3319 163.29C21.7752 162.154 25.91 162.722 26.6618 162.911C27.6015 162.911 29.2931 162.532 27.6015 161.206C25.7221 159.88 22.1511 161.017 22.1511 161.017C21.7752 159.123 22.339 158.365 22.339 158.365H20.4596L21.9631 157.986C24.5944 162.154 27.4136 159.691 27.9775 159.312C28.5413 158.933 29.481 157.418 29.481 157.418C30.2328 157.986 31.5484 157.607 31.5484 157.607C33.052 160.638 35.4953 160.07 36.811 159.312C37.9387 158.554 38.5025 157.418 38.5025 157.418C40.0061 158.554 42.0735 157.418 42.0735 157.418C44.1409 158.933 45.6445 157.797 46.5842 157.039C46.7095 156.913 46.8348 156.849 46.9601 156.849C47.0854 156.723 47.2107 156.597 47.336 156.471C47.4613 156.344 47.524 156.218 47.524 156.092C47.524 155.965 47.5866 155.902 47.7119 155.902C47.7119 155.902 47.7119 155.839 47.7119 155.713C47.8372 155.587 47.8999 155.523 47.8999 155.523C47.8999 155.397 47.9625 155.334 48.0878 155.334C48.0878 155.208 48.0878 155.145 48.0878 155.145C48.2131 154.892 48.2758 154.703 48.2758 154.576C50.3432 154.387 51.095 152.682 51.095 151.735C51.2829 151.166 51.095 150.788 50.907 150.219C51.9094 150.219 52.8491 150.093 53.7262 149.84C53.9768 149.84 54.2274 149.84 54.478 149.84C55.4178 149.84 56.1695 149.462 56.7334 148.893C56.984 148.767 57.2972 148.641 57.6731 148.514C57.9237 148.388 58.237 148.325 58.6129 148.325C58.237 148.514 58.237 148.704 58.6129 148.893C59.1767 149.272 60.3044 148.514 61.9959 148.514C61.3694 148.388 60.7429 148.199 60.1164 147.946C59.8658 148.072 59.6153 148.136 59.3647 148.136C59.49 148.009 59.6152 147.946 59.7405 147.946C55.2298 146.62 50.907 144.726 47.1481 141.505C46.7722 141 46.3336 140.558 45.8324 140.179C45.2686 139.422 45.6445 139.043 46.2083 138.475C46.5842 138.096 46.9601 138.096 47.524 138.664C48.2758 139.422 49.0275 140.369 50.3432 140.558C46.2083 136.012 47.524 130.897 49.2155 125.593C47.7119 126.54 47.7119 128.245 46.7722 129.192C44.5168 128.056 44.5168 126.54 46.2083 124.835C49.9673 121.047 54.2901 118.584 59.7405 120.289C64.8151 121.615 67.8223 125.404 69.1379 130.518C69.8897 133.549 68.3861 136.58 65.9428 137.149C63.1236 137.717 58.8008 135.633 58.049 133.17C57.2972 131.466 58.4249 129.571 61.0562 127.866C58.049 126.73 55.6057 127.866 54.1021 131.276C52.9744 134.307 54.1021 137.906 56.9213 139.043C60.8682 140.179 64.8151 140.558 68.5741 138.853C72.1451 137.149 74.0245 133.36 73.4607 128.624C72.521 123.131 68.95 119.531 64.2513 117.826C52.5985 113.659 43.2012 105.703 32.6761 99.6411C32.1123 99.2622 31.3605 99.0728 31.1726 98.315C34.1797 97.7467 35.6833 98.315 40.0061 100.967C39.6302 98.8833 41.1338 98.6939 43.3891 100.209C43.953 100.778 44.7048 101.346 45.6445 102.104C45.2686 99.8305 46.9601 99.6411 49.2155 101.346C50.1552 101.914 50.907 102.672 51.8468 103.43C52.0347 102.483 50.907 102.293 51.2829 101.535C53.5383 101.346 53.5383 101.346 58.049 104.756C56.9213 102.861 56.7334 102.104 58.8008 102.483C60.8682 103.051 61.9959 104.756 63.6874 105.703C64.0633 104.945 62.5598 104.756 63.3115 103.998C63.6874 103.43 64.4392 103.998 65.0031 103.998C66.8825 104.187 68.0102 105.892 69.7018 106.839C69.5138 106.271 69.3259 105.703 69.1379 105.135C70.6415 105.324 71.9571 105.703 73.0848 106.65C76.2799 110.06 79.8509 113.091 82.4822 117.069Z" fill="#833B56"/>
<path d="M31.1724 88.0857C30.6086 88.654 31.7363 89.7906 30.4206 89.7906C27.2255 89.4118 23.6545 90.1695 21.3992 86.5703C21.2112 87.5174 21.5871 88.654 20.2715 88.0857C19.5197 87.7069 18.58 87.7069 17.8282 86.9491C16.1366 84.2971 14.6331 81.6451 13.5054 78.2353C17.0764 79.5613 19.8956 81.0768 23.2786 81.2662C26.2858 81.4556 29.2929 81.2662 32.3001 80.1296C33.0519 79.7507 33.8037 79.3719 34.7434 79.9402C40.1939 84.2971 46.0203 87.8963 51.6587 91.8744C47.7118 91.1166 43.5769 91.8744 39.818 89.9801C38.8783 89.4118 38.1265 90.5484 36.8108 90.5484C33.4278 90.1695 33.4278 90.3589 31.1724 88.0857Z" fill="#833B56"/>
<path d="M11.626 83.9183C14.6331 90.1695 20.4595 90.7378 26.0979 91.4955C33.9917 92.6321 41.8855 92.8216 49.7793 94.1476C56.5454 95.0947 62.9356 97.1785 68.9499 100.588C69.2005 100.841 69.5138 101.03 69.8897 101.157C69.8897 101.346 69.8897 101.535 70.0776 101.914C66.5066 100.778 63.1235 99.6411 59.5525 98.8834C50.907 96.989 41.8855 96.7996 33.2399 95.8525C27.6015 95.0947 21.9631 94.1476 16.8885 91.4955C13.8814 89.9801 11.8139 87.7069 11.626 83.9183Z" fill="#833B56"/>
<path d="M41.5095 137.527C42.4493 139.422 43.7649 141.127 44.8926 143.021C42.2613 142.263 40.3819 140.937 39.4421 138.285C39.0662 137.338 39.2542 136.012 40.1939 135.633C41.5096 135.254 41.3216 136.77 41.5095 137.527Z" fill="#833B56"/>
</svg>
